<svg width="128" height="128" viewBox="0 0 128 128" fill="none" xmlns="http://www.w3.org/2000/svg">
<g clip-path="url(#clip0_4_2)">
<circle cx="64" cy="64" r="64" fill="url(#paint0_linear_4_2)"/>
<mask id="path-2-outside-1_4_2" maskUnits="userSpaceOnUse" x="9" y="24" width="110" height="79" fill="black">
<rect fill="white" x="9" y="24" width="110" height="79"/>
<path d="M48.9609 58.6172L68.8828 78.5391L48.9609 98.6562L14 63.5L48.9609 28.5391L57.75 37.3281L52.6719 42.4062L48.9609 38.5L23.9609 63.5L48.9609 88.5L58.9219 78.5391L43.8828 63.5L48.9609 58.6172ZM78.8438 28.5391L114 63.5L78.8438 98.6562L70.25 89.8672L75.1328 84.7891L78.8438 88.5L103.844 63.5L78.8438 38.5L68.8828 48.6562L83.9219 63.5L78.8438 68.5781L58.9219 48.6562L78.8438 28.5391Z"/>
</mask>
<path d="M48.9609 58.6172L68.8828 78.5391L48.9609 98.6562L14 63.5L48.9609 28.5391L57.75 37.3281L52.6719 42.4062L48.9609 38.5L23.9609 63.5L48.9609 88.5L58.9219 78.5391L43.8828 63.5L48.9609 58.6172ZM78.8438 28.5391L114 63.5L78.8438 98.6562L70.25 89.8672L75.1328 84.7891L78.8438 88.5L103.844 63.5L78.8438 38.5L68.8828 48.6562L83.9219 63.5L78.8438 68.5781L58.9219 48.6562L78.8438 28.5391Z" fill="#DE6032"/>
<path d="M48.9609 58.6172L51.0823 56.4959L49.0021 54.4157L46.8816 56.4547L48.9609 58.6172ZM68.8828 78.5391L71.0145 80.65L73.1151 78.5287L71.0041 76.4177L68.8828 78.5391ZM48.9609 98.6562L46.8337 100.772L48.9654 102.915L51.0926 100.767L48.9609 98.6562ZM14 63.5L11.8787 61.3787L9.76326 63.4941L11.8728 65.6154L14 63.5ZM48.9609 28.5391L51.0823 26.4177L48.9609 24.2964L46.8396 26.4177L48.9609 28.5391ZM57.75 37.3281L59.8713 39.4494L61.9926 37.3281L59.8713 35.2068L57.75 37.3281ZM52.6719 42.4062L50.4969 44.4725L52.6168 46.704L54.7932 44.5276L52.6719 42.4062ZM48.9609 38.5L51.1359 36.4338L49.016 34.2023L46.8396 36.3787L48.9609 38.5ZM23.9609 63.5L21.8396 61.3787L19.7183 63.5L21.8396 65.6213L23.9609 63.5ZM48.9609 88.5L46.8396 90.6213L48.9609 92.7426L51.0823 90.6213L48.9609 88.5ZM58.9219 78.5391L61.0432 80.6604L63.1645 78.5391L61.0432 76.4177L58.9219 78.5391ZM43.8828 63.5L41.8035 61.3375L39.5982 63.458L41.7615 65.6213L43.8828 63.5ZM78.8438 28.5391L80.9592 26.4118L78.8275 24.292L76.7121 26.4281L78.8438 28.5391ZM114 63.5L116.121 65.6213L118.249 63.4941L116.115 61.3728L114 63.5ZM78.8438 98.6562L76.6987 100.754L78.8198 102.923L80.9651 100.778L78.8438 98.6562ZM70.25 89.8672L68.0875 87.7879L66.0713 89.8847L68.105 91.9645L70.25 89.8672ZM75.1328 84.7891L77.2541 82.6677L75.0908 80.5044L72.9703 82.7097L75.1328 84.7891ZM78.8438 88.5L76.7224 90.6213L78.8438 92.7426L80.9651 90.6213L78.8438 88.5ZM103.844 63.5L105.965 65.6213L108.086 63.5L105.965 61.3787L103.844 63.5ZM78.8438 38.5L80.9651 36.3787L78.8231 34.2367L76.7019 36.3994L78.8438 38.5ZM68.8828 48.6562L66.741 46.5556L64.647 48.6907L66.7754 50.7914L68.8828 48.6562ZM83.9219 63.5L86.0432 65.6213L88.1784 63.4861L86.0293 61.3649L83.9219 63.5ZM78.8438 68.5781L76.7224 70.6994L78.8438 72.8208L80.9651 70.6994L78.8438 68.5781ZM58.9219 48.6562L56.7902 46.5453L54.6896 48.6666L56.8006 50.7776L58.9219 48.6562ZM46.8396 60.7385L66.7615 80.6604L71.0041 76.4177L51.0823 56.4959L46.8396 60.7385ZM66.7512 76.4281L46.8293 96.5453L51.0926 100.767L71.0145 80.65L66.7512 76.4281ZM51.0882 96.5408L16.1272 61.3846L11.8728 65.6154L46.8337 100.772L51.0882 96.5408ZM16.1213 65.6213L51.0823 30.6604L46.8396 26.4177L11.8787 61.3787L16.1213 65.6213ZM46.8396 30.6604L55.6287 39.4494L59.8713 35.2068L51.0823 26.4177L46.8396 30.6604ZM55.6287 35.2068L50.5506 40.2849L54.7932 44.5276L59.8713 39.4494L55.6287 35.2068ZM54.8469 40.34L51.1359 36.4338L46.7859 40.5662L50.4969 44.4725L54.8469 40.34ZM46.8396 36.3787L21.8396 61.3787L26.0823 65.6213L51.0823 40.6213L46.8396 36.3787ZM21.8396 65.6213L46.8396 90.6213L51.0823 86.3787L26.0823 61.3787L21.8396 65.6213ZM51.0823 90.6213L61.0432 80.6604L56.8006 76.4177L46.8396 86.3787L51.0823 90.6213ZM61.0432 76.4177L46.0041 61.3787L41.7615 65.6213L56.8006 80.6604L61.0432 76.4177ZM45.9621 65.6625L51.0403 60.7797L46.8816 56.4547L41.8035 61.3375L45.9621 65.6625ZM76.7283 30.6663L111.885 65.6272L116.115 61.3728L80.9592 26.4118L76.7283 30.6663ZM111.879 61.3787L76.7224 96.5349L80.9651 100.778L116.121 65.6213L111.879 61.3787ZM80.9888 96.5589L72.395 87.7698L68.105 91.9645L76.6987 100.754L80.9888 96.5589ZM72.4125 91.9465L77.2953 86.8684L72.9703 82.7097L68.0875 87.7879L72.4125 91.9465ZM73.0115 86.9104L76.7224 90.6213L80.9651 86.3787L77.2541 82.6677L73.0115 86.9104ZM80.9651 90.6213L105.965 65.6213L101.722 61.3787L76.7224 86.3787L80.9651 90.6213ZM105.965 61.3787L80.9651 36.3787L76.7224 40.6213L101.722 65.6213L105.965 61.3787ZM76.7019 36.3994L66.741 46.5556L71.0246 50.7569L80.9856 40.6006L76.7019 36.3994ZM66.7754 50.7914L81.8145 65.6351L86.0293 61.3649L70.9902 46.5211L66.7754 50.7914ZM81.8006 61.3787L76.7224 66.4568L80.9651 70.6994L86.0432 65.6213L81.8006 61.3787ZM80.9651 66.4568L61.0432 46.5349L56.8006 50.7776L76.7224 70.6994L80.9651 66.4568ZM61.0535 50.7672L80.9754 30.65L76.7121 26.4281L56.7902 46.5453L61.0535 50.7672Z" fill="#040C32" mask="url(#path-2-outside-1_4_2)"/>
</g>
<defs>
<linearGradient id="paint0_linear_4_2" x1="64" y1="0" x2="64" y2="128" gradientUnits="userSpaceOnUse">
<stop stop-color="#FCCC0C"/>
<stop offset="1" stop-color="#FD8DFF"/>
</linearGradient>
<clipPath id="clip0_4_2">
<rect width="128" height="128" fill="white"/>
</clipPath>
</defs>
</svg>
